<?xml version="1.0"?>
<svg xmlns="http://www.w3.org/2000/svg" viewBox="0 0 96 96" width="512" height="512"><g id="ICONS_02" data-name="ICONS 02"><path d="M45.13,55.91a5.38,5.38,0,1,1-5.38-5.38A5.39,5.39,0,0,1,45.13,55.91ZM57.39,50.7A8.45,8.45,0,1,0,49,42.25,8.46,8.46,0,0,0,57.39,50.7ZM30,44a1.44,1.44,0,1,0,1.44,1.44A1.44,1.44,0,0,0,30,44Zm9.72-4.28a4,4,0,1,0-4-4A4,4,0,0,0,39.75,39.74Zm3.56,27.08a1.08,1.08,0,1,0,1.08,1.08A1.08,1.08,0,0,0,43.31,66.82Zm7-37.15a1.08,1.08,0,1,0-1.07-1.08A1.08,1.08,0,0,0,50.34,29.67Zm4.19,28.26a4,4,0,1,0,4,4A4,4,0,0,0,54.53,57.93Zm10.91-3.1a1.08,1.08,0,1,0,0,2.16,1.08,1.08,0,0,0,0-2.16ZM87.91,53.7a7.93,7.93,0,0,1-1.67,4A2.38,2.38,0,0,1,81.81,57a3.88,3.88,0,0,0-3.61-2.41h-.06l-5.88.08a1.86,1.86,0,0,0-1.72,1.25c-.22.63-.47,1.26-.74,1.87a1.87,1.87,0,0,0,.49,2.17l3.08,2.6a2.83,2.83,0,0,0,3.06.4,1.44,1.44,0,0,1,1.32-.1,1.42,1.42,0,0,1,.5,1.22,5.07,5.07,0,0,1-2.6,4.22,1.44,1.44,0,0,1-1.32.1A1.5,1.5,0,0,1,73.84,67a2.85,2.85,0,0,0-1.74-2.67l-3.62-1.55a1.85,1.85,0,0,0-2.15.52l-.47.55A1.85,1.85,0,0,0,65.61,66l2.94,5.38a4,4,0,0,0,3.74,2,2.83,2.83,0,0,1,2.48.84c1.08,1.42-.1,4.22-2.58,6.1s-5.49,2.27-6.57.85a2.91,2.91,0,0,1,0-2.86,3.88,3.88,0,0,0-.89-4.3l-4.22-4.1a1.84,1.84,0,0,0-2.09-.34,23.18,23.18,0,0,1-2.19.93A1.84,1.84,0,0,0,55,72.28l.27,4a2.83,2.83,0,0,0,1.85,2.48,1.41,1.41,0,0,1,1,.88c.17.78-1,2-2.81,2.37s-3.38-.18-3.55-1a1.46,1.46,0,0,1,.63-1.3,2.86,2.86,0,0,0,.71-3.11L51.66,73a1.84,1.84,0,0,0-1.86-1.17l-.36,0a1.84,1.84,0,0,0-1.68,1.32L46.05,79a3.93,3.93,0,0,0,1.21,4.08,2.34,2.34,0,0,1-.61,4.33,8.66,8.66,0,0,1-8.39-1.15,2.86,2.86,0,0,1-1.2-2.38,2.91,2.91,0,0,1,2-2,3.89,3.89,0,0,0,2.41-3.67l-.08-5.88a1.86,1.86,0,0,0-1.25-1.72,23.87,23.87,0,0,1-2.52-1,1.78,1.78,0,0,0-.81-.19,1.82,1.82,0,0,0-1.37.61l-2.7,3a2.85,2.85,0,0,0-.5,3,1.45,1.45,0,0,1,.07,1.32c-.45.67-2.11.66-3.66-.37A4.65,4.65,0,0,1,26.92,75a1.43,1.43,0,0,1-.06-1.33,1.5,1.5,0,0,1,1.38-.45A2.84,2.84,0,0,0,31,71.59L32.62,68A1.86,1.86,0,0,0,30,65.61l-5.37,2.94a3.94,3.94,0,0,0-2,3.74,2.83,2.83,0,0,1-.84,2.48c-1.42,1.08-4.22-.1-6.1-2.58s-2.27-5.49-.85-6.57a2.91,2.91,0,0,1,2.86,0,3.88,3.88,0,0,0,4.3-.89l4.1-4.22a1.84,1.84,0,0,0,.34-2.09c-.18-.38-.35-.76-.52-1.14a1.84,1.84,0,0,0-1.91-1.13l-4,.47a2.82,2.82,0,0,0-2.39,2,1.38,1.38,0,0,1-.83,1c-.77.22-2-.89-2.5-2.69a4.84,4.84,0,0,1,0-2.56,1.44,1.44,0,0,1,.83-1,1.5,1.5,0,0,1,1.33.57,2.84,2.84,0,0,0,3.14.56l3.61-1.58a1.83,1.83,0,0,0,1.08-1.92c-.06-.49-.1-1-.13-1.48a1.84,1.84,0,0,0-1.32-1.67L17,46.05a3.93,3.93,0,0,0-4.08,1.21,2.88,2.88,0,0,1-2.36,1.18,2.86,2.86,0,0,1-2-1.79,8.66,8.66,0,0,1,1.15-8.39,2.85,2.85,0,0,1,2.38-1.2,2.91,2.91,0,0,1,2,2,3.85,3.85,0,0,0,3.67,2.41l5.88-.08a1.86,1.86,0,0,0,1.72-1.25c.17-.5.36-1,.57-1.48a1.86,1.86,0,0,0-.53-2.16l-3.12-2.55a2.85,2.85,0,0,0-3.07-.35,1.43,1.43,0,0,1-1.32.13c-.69-.42-.76-2.07.19-3.68A4.74,4.74,0,0,1,20,28.24a1.4,1.4,0,0,1,1.31-.12,1.48,1.48,0,0,1,.52,1.35,2.86,2.86,0,0,0,1.79,2.64l3.65,1.48A1.82,1.82,0,0,0,29.4,33l.74-.87a1.85,1.85,0,0,0,.25-2.11l-2.94-5.38a3.94,3.94,0,0,0-3.74-2,2.83,2.83,0,0,1-2.48-.84c-1.08-1.42.1-4.22,2.58-6.1s5.49-2.27,6.57-.85a2.91,2.91,0,0,1,0,2.86,3.88,3.88,0,0,0,.89,4.3l4.22,4.1a1.85,1.85,0,0,0,2.1.34c.48-.24,1-.45,1.46-.65A1.87,1.87,0,0,0,40.24,24l-.4-4a2.86,2.86,0,0,0-1.93-2.42,1.43,1.43,0,0,1-1-.84,1.44,1.44,0,0,1,.5-1.23,4.68,4.68,0,0,1,2.24-1.23c1.8-.47,3.37.07,3.57.85a1.46,1.46,0,0,1-.59,1.32A2.87,2.87,0,0,0,42,19.52l1.54,3.63a1.83,1.83,0,0,0,1.9,1.12l1.13-.1a1.84,1.84,0,0,0,1.67-1.32L50,17a3.93,3.93,0,0,0-1.21-4.08,2.88,2.88,0,0,1-1.18-2.36,2.86,2.86,0,0,1,1.79-2,8.66,8.66,0,0,1,8.39,1.15,2.86,2.86,0,0,1,1.2,2.38,2.91,2.91,0,0,1-2,2,3.89,3.89,0,0,0-2.41,3.67l.08,5.88a1.86,1.86,0,0,0,1.25,1.72q.6.21,1.2.45a1.84,1.84,0,0,0,2.15-.55l2.51-3.16A2.84,2.84,0,0,0,62,19.13a1.43,1.43,0,0,1-.14-1.32c.4-.69,2.06-.78,3.67.15a4.71,4.71,0,0,1,1.83,1.79,1.41,1.41,0,0,1,.14,1.31,1.48,1.48,0,0,1-1.34.54,2.84,2.84,0,0,0-2.62,1.81l-1.44,3.67a1.84,1.84,0,0,0,.59,2.13q.57.45,1.11.93a1.85,1.85,0,0,0,2.11.25l5.38-2.94a3.94,3.94,0,0,0,2-3.74,2.83,2.83,0,0,1,.84-2.48c1.42-1.08,4.22.1,6.1,2.58s2.27,5.49.85,6.57a2.91,2.91,0,0,1-2.86,0,3.9,3.9,0,0,0-4.3.89l-4.1,4.22a1.86,1.86,0,0,0-.34,2.1c.24.49.47,1,.67,1.5a1.87,1.87,0,0,0,1.9,1.16l4-.4A2.83,2.83,0,0,0,78.5,38a1.43,1.43,0,0,1,.84-1c.79-.2,2,.93,2.46,2.73s-.08,3.38-.86,3.58a1.49,1.49,0,0,1-1.32-.59,2.85,2.85,0,0,0-3.13-.62l-3.63,1.53a1.82,1.82,0,0,0-1.12,1.9q.06.54.09,1.08a1.84,1.84,0,0,0,1.32,1.67L79,50a3.93,3.93,0,0,0,4.08-1.21,2.85,2.85,0,0,1,2.36-1.18h0a2.86,2.86,0,0,1,2,1.79A8,8,0,0,1,87.91,53.7ZM47.22,28.59a3.13,3.13,0,1,0,3.12-3.13A3.13,3.13,0,0,0,47.22,28.59ZM33.68,35.73a6.07,6.07,0,1,0,6.07-6.06A6.07,6.07,0,0,0,33.68,35.73Zm-.17,9.73A3.49,3.49,0,1,0,30,49,3.49,3.49,0,0,0,33.51,45.46ZM46.44,67.9A3.13,3.13,0,1,0,43.31,71,3.13,3.13,0,0,0,46.44,67.9Zm.73-12a7.43,7.43,0,1,0-7.42,7.43A7.44,7.44,0,0,0,47.17,55.91Zm10.22-3.17A10.49,10.49,0,1,0,46.9,42.25,10.5,10.5,0,0,0,57.39,52.74Zm3.2,9.2A6.06,6.06,0,1,0,54.53,68,6.07,6.07,0,0,0,60.59,61.94Zm8-6A3.13,3.13,0,1,0,65.44,59,3.13,3.13,0,0,0,68.57,55.91Z"/></g></svg>
