<?xml version="1.0" encoding="utf-8"?>
<!-- Generator: Adobe Illustrator 18.1.1, SVG Export Plug-In . SVG Version: 6.00 Build 0)  -->
<svg version="1.1" id="virusimg" xmlns="http://www.w3.org/2000/svg" xmlns:xlink="http://www.w3.org/1999/xlink" x="0px" y="0px"
	 viewBox="0 0 1000 1000" enable-background="new 0 0 1000 1000" xml:space="preserve">
<style>
@keyframes rotating {
    from {
        transform: rotate(0deg);
    }
    to {
        transform: rotate(360deg);
    }
}
.rotating {
    transform-origin: 500px 500px;
    animation: rotating 60s linear infinite;
    will-change: auto;
}

#virusimg .rotating .people {
	transition: opacity 2s;
	opacity: 0;
}
#virusimg .rotating .virus {
	transition: opacity 2s;
	opacity:1;
}

#virusimg:hover .rotating .people {
	opacity:1;
}
#virusimg:hover .rotating .virus {
	opacity: 0;
}

</style>
<g class="rotating">
	<g class="people">
		<path fill="#9BF218" d="M499.394,100.097c11.853,0,21.441-9.604,21.441-21.44c0-11.837-9.588-21.44-21.441-21.44
			c-11.837,0-21.44,9.604-21.44,21.44C477.953,90.493,487.557,100.097,499.394,100.097z"/>
		<circle fill="#9BF218" cx="710.145" cy="134.81" r="21.441"/>
		<path fill="#9BF218" d="M875.304,307.387c10.258-5.934,13.767-19.048,7.849-29.289c-5.918-10.258-19.032-13.783-29.289-7.849
			c-10.258,5.919-13.767,19.032-7.849,29.289C851.933,309.779,865.047,313.305,875.304,307.387z"/>
		<path fill="#9BF218" d="M921.328,477.953c-11.837,0-21.44,9.604-21.44,21.44c0,11.853,9.604,21.44,21.44,21.44
			c11.853,0,21.456-9.588,21.456-21.44C942.784,487.557,933.181,477.953,921.328,477.953z"/>
		<path fill="#9BF218" d="M890.178,482.228c-2.946-55.976-17.656-108.833-41.701-156.149l-6.721-21.181
			c-0.526-1.643-1.276-2.951-2.457-4.212l-16.385-17.793c-13.829-20.275-29.508-39.187-46.804-56.483
			c-17.179-17.179-35.952-32.762-56.071-46.522l-21.619-19.729c-1.276-1.165-2.584-1.914-4.243-2.425l-28.13-8.779
			c-41.291-19.463-86.534-31.917-134.198-35.83l0.009-0.074l-29.943-6.573c-1.675-0.367-3.191-0.367-4.882,0.016l-29.148,6.553
			c-49.075,3.912-95.603,16.874-137.907,37.226l-25.079,7.972c-1.643,0.526-2.951,1.276-4.212,2.441l-17.872,16.47
			c-21.655,14.417-41.795,30.929-60.121,49.256c-18.856,18.852-35.795,39.619-50.502,61.985l-12.032,13.185
			c-1.165,1.276-1.914,2.584-2.425,4.228l-4.668,14.958c-26.78,50.758-42.719,108.118-44.762,169l-1.826,8.32
			c-0.367,1.675-0.367,3.19,0.016,4.882l1.652,7.343c1.205,66.958,19.22,129.812,50.016,184.514l0.083,0.263
			c0.526,1.659,1.276,2.967,2.441,4.227l0.12,0.13c17.113,29.452,37.954,56.471,61.889,80.4
			c70.814,70.814,168.652,114.62,276.7,114.62c72.207,0,139.846-19.563,197.91-53.668c0.031-0.018,0.061-0.036,0.092-0.053
			c28.799-16.926,55.242-37.427,78.715-60.899c23.169-23.174,43.445-49.238,60.243-77.603l3.488-3.819
			c1.149-1.276,1.914-2.584,2.425-4.243l1.664-5.332c28.004-51.84,44.647-110.714,46.599-173.294l2.993-13.636
			c0.367-1.675,0.367-3.191-0.016-4.882L890.178,482.228z M762.024,765.757c-15.009,15.009-31.3,28.735-48.69,41.009l-33.817-46.529
			l-20.1-71.692c-4.786-17.038-27.168-7.227-23.291,6.589l18.569,66.14c0.351,1.26-0.175,2.552-1.308,3.207
			c-1.133,0.654-2.505,0.463-3.414-0.479l-48.002-49.134c-10.034-10.274-29.72,4.212-17.357,16.862l51.735,52.963l22.19,49.836
			l1.571,3.53c-39.508,18.991-82.895,31.195-128.648,35.108l-6.113-58.037l18.425-72.138c4.387-17.149-19.909-19.829-23.451-5.934
			l-17.006,66.555c-0.319,1.276-1.42,2.122-2.728,2.122c-1.292,0-2.393-0.845-2.728-2.122l-16.99-66.555
			c-3.557-13.895-27.837-11.215-23.466,5.934l18.33,71.724l-5.711,54.271l-0.456,4.366c-45.828-3.642-89.311-15.603-128.942-34.373
			l23.759-53.393l52.038-53.266c12.347-12.651-7.322-27.12-17.357-16.862l-48.002,49.15c-0.909,0.925-2.297,1.117-3.414,0.463
			c-1.133-0.654-1.659-1.946-1.308-3.191l18.553-66.14c3.877-13.815-18.489-23.626-23.275-6.604l-20.005,71.293l-32.065,44.141
			l-2.436,3.353c-18.008-12.567-34.854-26.684-50.336-42.166c-16.068-16.072-30.666-33.611-43.586-52.394l46.569-33.846l71.692-20.1
			c17.022-4.786,7.227-27.168-6.604-23.291l-66.14,18.569c-1.244,0.351-2.536-0.175-3.191-1.308
			c-0.654-1.133-0.463-2.505,0.463-3.414l49.15-48.002c10.258-10.034-4.212-29.72-16.862-17.357l-52.963,51.735l-49.836,22.19
			l-2.893,1.287c-18.442-39.573-30.114-82.935-33.531-128.598l55.806-5.879l72.154,18.425c17.133,4.387,19.829-19.909,5.918-23.451
			l-66.555-17.006c-1.26-0.319-2.106-1.42-2.106-2.728c0-1.292,0.846-2.393,2.106-2.728l66.555-16.99
			c13.911-3.557,11.215-27.838-5.918-23.466l-71.74,18.33l-54.255-5.711l-1.546-0.161c4.029-45.391,16.224-88.436,35.105-127.654
			l49.825,22.177l53.266,52.038c12.667,12.347,27.136-7.322,16.862-17.357l-49.134-48.002c-0.925-0.909-1.117-2.297-0.479-3.414
			c0.654-1.133,1.946-1.659,3.206-1.308l66.14,18.553c13.815,3.877,23.626-18.489,6.589-23.275l-71.277-20.005l-44.085-32.024
			c12.347-17.542,26.169-33.97,41.294-49.095c16.098-16.098,33.67-30.72,52.491-43.658l31.197,42.924l20.116,71.692
			c4.786,17.022,27.152,7.227,23.275-6.604l-18.553-66.14c-0.351-1.244,0.175-2.536,1.308-3.191c1.133-0.654,2.505-0.463,3.414,0.463
			l48.002,49.15c10.034,10.258,29.72-4.211,17.357-16.862l-51.735-52.963l-21.673-48.675c39.151-18.349,82.031-30.061,127.191-33.699
			l5.481,51.92l-18.441,72.154c-4.371,17.133,19.909,19.829,23.466,5.919l16.99-66.555c0.335-1.26,1.436-2.106,2.728-2.106
			c1.308,0,2.409,0.846,2.728,2.106l17.006,66.555c3.557,13.911,27.838,11.215,23.451-5.919l-18.314-71.74l5.492-52.323
			c45.125,3.651,87.974,15.365,127.098,33.705l-21.241,47.748l-52.038,53.266c-12.363,12.666,7.322,27.136,17.357,16.862
			l48.002-49.134c0.909-0.925,2.281-1.117,3.414-0.479c1.133,0.654,1.659,1.946,1.308,3.207l-18.569,66.14
			c-3.877,13.815,18.505,23.626,23.291,6.589l19.989-71.277l31.092-42.781c18.849,12.949,36.446,27.588,52.564,43.706
			c15.043,15.042,28.796,31.374,41.091,48.807l-42.878,31.164l-71.692,20.116c-17.038,4.786-7.227,27.152,6.588,23.275l66.14-18.553
			c1.26-0.351,2.552,0.175,3.206,1.308c0.654,1.133,0.463,2.505-0.479,3.414l-49.134,48.002
			c-10.274,10.034,4.212,29.72,16.862,17.357l52.963-51.735l49.293-21.948c18.891,39.088,31.134,81.99,35.263,127.236l-54.118,5.712
			l-72.138-18.441c-17.149-4.371-19.829,19.909-5.934,23.466l66.555,16.99c1.276,0.335,2.122,1.436,2.122,2.728
			c0,1.308-0.846,2.409-2.122,2.728l-66.555,17.006c-13.895,3.557-11.215,27.838,5.934,23.451l71.723-18.314l54.271,5.695l0.851,0.09
			c-3.264,45.557-14.744,88.838-32.968,128.373l-51.284-22.808l-53.266-52.038c-12.65-12.363-27.12,7.322-16.862,17.357l49.15,48.002
			c0.925,0.909,1.117,2.281,0.463,3.414c-0.654,1.133-1.946,1.659-3.191,1.308l-66.14-18.569
			c-13.815-3.877-23.626,18.505-6.604,23.291l71.293,19.989l44.141,32.081l2.026,1.472
			C793.435,731.249,778.502,749.274,762.024,765.757z"/>
		<circle fill="#9BF218" cx="865.19" cy="710.146" r="21.441"/>
		<circle fill="#9BF218" cx="711.182" cy="864.584" r="21.441"/>
		<path fill="#9BF218" d="M500.59,899.887c-11.837,0-21.44,9.604-21.44,21.44c0,11.853,9.604,21.456,21.44,21.456
			c11.853,0,21.44-9.604,21.44-21.456C522.031,909.491,512.443,899.887,500.59,899.887z"/>
		<path fill="#9BF218" d="M300.559,846.621c-10.242-5.918-23.355-2.409-29.289,7.849c-5.918,10.258-2.393,23.371,7.849,29.289
			c10.258,5.918,23.371,2.409,29.289-7.849C314.342,865.653,310.816,852.54,300.559,846.621z"/>
		<path fill="#9BF218" d="M124.68,692.613c-10.242,5.919-13.767,19.032-7.849,29.289c5.934,10.258,19.048,13.767,29.289,7.849
			c10.258-5.919,13.783-19.032,7.849-29.289C148.051,690.205,134.938,686.695,124.68,692.613z"/>
		<path fill="#9BF218" d="M78.656,479.15c-11.837,0-21.44,9.604-21.44,21.44c0,11.853,9.604,21.44,21.44,21.44
			s21.44-9.588,21.44-21.44C100.097,488.753,90.493,479.15,78.656,479.15z"/>
		<path fill="#9BF218" d="M124.09,308.408c10.258,5.934,23.371,2.409,29.289-7.849c5.918-10.242,2.409-23.355-7.849-29.289
			c-10.258-5.918-23.371-2.393-29.289,7.849C110.322,289.376,113.832,302.489,124.09,308.408z"/>
		<path fill="#9BF218" d="M299.538,153.969c10.242-5.918,13.767-19.032,7.849-29.289c-5.934-10.242-19.048-13.767-29.289-7.849
			c-10.258,5.934-13.783,19.048-7.849,29.289C276.167,156.378,289.28,159.904,299.538,153.969z"/>
	</g>
	<g>
		<path class="virus" fill-rule="evenodd" clip-rule="evenodd" fill="#ED202C" d="M532.409,755.635c23.578-2.989,46.186-9.189,67.363-18.14
		c-0.016,0.032-0.016,0.064-0.032,0.095c31.909,11.765,43.817,42.116,38.602,75.821l0,0c-2.56,11.717-0.938,24.389,5.501,35.549
		c13.752,23.8,44.373,32.004,68.174,18.268c23.8-13.737,32.02-44.373,18.268-68.174c-6.439-11.161-16.598-18.888-28.029-22.544l0,0
		c-31.781-12.337-52.132-37.823-46.361-71.322c-0.079-0.032-0.175-0.064-0.254-0.08c18.633-14.182,35.279-30.843,49.461-49.477
		c0.032,0.095,0.048,0.175,0.08,0.254c33.515-5.755,76.632,24.754,88.969,56.552l0,0c3.641,11.415,11.383,21.575,22.544,28.029
		c23.8,13.737,54.421,5.533,68.158-18.268c13.752-23.8,5.549-54.437-18.252-68.174c-11.161-6.439-23.832-8.061-35.549-5.501l0,0
		c-33.705,5.199-81.688-16.884-93.453-48.777c-0.032,0-0.048,0.016-0.079,0.016c8.935-21.177,15.136-43.785,18.109-67.363
		l0.016,0.016c26.137-21.749,58.38-16.884,84.963,4.483l0,0c8.872,8.077,20.637,13.005,33.53,13.005
		c27.489,0,49.906-22.417,49.906-49.906c0-27.489-22.417-49.906-49.906-49.906c-12.894,0-24.659,4.929-33.53,13.005l0,0
		c-26.583,21.352-58.825,26.233-84.963,4.483h-0.016c-2.973-23.578-9.174-46.186-18.125-67.347c0.032,0,0.064,0.016,0.095,0.016
		c11.765-31.909,59.747-53.992,93.453-48.777l0,0c11.717,2.56,24.373,0.938,35.549-5.501c23.8-13.752,32.004-44.373,18.252-68.174
		c-13.737-23.8-44.357-32.02-68.158-18.268c-11.161,6.439-18.904,16.598-22.544,28.029l0,0
		c-12.353,31.782-55.455,62.307-88.969,56.536c-0.032,0.095-0.048,0.175-0.08,0.254c-14.182-18.633-30.828-35.279-49.461-49.461
		c0.079-0.032,0.175-0.048,0.254-0.079c-5.771-33.515,14.563-59,46.361-71.338l0,0c11.431-3.641,21.575-11.368,28.029-22.529
		c13.736-23.816,5.533-54.437-18.268-68.174c-23.8-13.736-54.421-5.549-68.174,18.268c-6.439,11.161-8.061,23.816-5.501,35.534l0,0
		c5.199,33.705-6.693,64.056-38.602,75.821c0.016,0.032,0.016,0.064,0.016,0.095c-21.161-8.951-43.769-15.136-67.347-18.125l0,0
		c-21.749-26.153-16.884-78.746,4.483-105.329l0,0c8.077-8.871,13.005-20.637,13.005-33.53c0-27.489-22.417-49.906-49.906-49.906
		c-27.473,0-49.906,22.417-49.906,49.906c0,12.894,4.929,24.659,13.005,33.53l0,0c21.352,26.583,26.233,79.176,4.483,105.329h0.016
		c-23.578,2.989-46.186,9.174-67.363,18.125c0-0.032,0.016-0.064,0.016-0.095c-31.893-11.749-43.801-42.116-38.586-75.821l0,0
		c2.544-11.717,0.938-24.373-5.517-35.534c-13.736-23.8-44.357-32.004-68.158-18.268c-23.8,13.736-32.02,44.357-18.268,68.174
		c6.439,11.161,16.598,18.888,28.029,22.529h-0.016c31.797,12.353,52.132,37.839,46.377,71.338c0.08,0.032,0.159,0.048,0.238,0.079
		c-18.633,14.182-35.279,30.828-49.461,49.461c-0.016-0.079-0.048-0.159-0.064-0.238c-33.514,5.755-76.632-24.754-88.969-56.552l0,0
		c-3.657-11.431-11.383-21.575-22.544-28.029c-23.8-13.737-54.421-5.533-68.174,18.268c-13.736,23.8-5.533,54.421,18.268,68.174
		c11.161,6.439,23.832,8.061,35.55,5.501l0,0c33.689-5.199,81.688,16.869,93.453,48.777c0.032,0,0.048-0.016,0.079-0.016
		c-8.935,21.177-15.136,43.769-18.125,67.347l0,0c-26.137,21.749-58.38,16.884-84.963-4.483l0,0
		c-8.871-8.077-20.637-13.005-33.53-13.005c-27.489,0-49.906,22.417-49.906,49.906c0,27.489,22.417,49.906,49.906,49.906
		c12.894,0,24.659-4.929,33.53-13.005l0,0c26.583-21.352,58.825-26.233,84.963-4.483l0,0c2.989,23.578,9.189,46.17,18.125,67.347
		c-0.016,0-0.048-0.016-0.079-0.016c-11.765,31.909-59.747,53.992-93.453,48.777l0,0c-11.717-2.56-24.389-0.938-35.55,5.501
		c-23.8,13.752-32.004,44.373-18.268,68.174c13.752,23.8,44.373,32.004,68.174,18.268c11.161-6.439,18.904-16.598,22.544-28.029l0,0
		c12.337-31.781,55.455-62.307,88.969-56.552c0.016-0.079,0.048-0.159,0.079-0.238c14.182,18.633,30.828,35.279,49.445,49.461
		c-0.079,0.016-0.159,0.048-0.238,0.08c5.771,33.499-14.563,58.984-46.361,71.337l0,0c-11.431,3.641-21.59,11.368-28.029,22.529
		c-13.752,23.816-5.533,54.437,18.268,68.174c23.8,13.736,54.421,5.533,68.174-18.268c6.439-11.161,8.061-23.816,5.501-35.534l0,0
		c-5.199-33.705,6.693-64.072,38.602-75.821c-0.016-0.032-0.016-0.064-0.032-0.095c21.177,8.951,43.785,15.136,67.363,18.125l0,0
		c21.734,26.138,16.869,78.746-4.499,105.329l0,0c-8.061,8.872-12.989,20.637-12.989,33.53c0,27.489,22.417,49.906,49.906,49.906
		c27.473,0,49.89-22.417,49.89-49.906c0-12.894-4.929-24.659-12.989-33.53l0,0C515.541,834.382,510.676,781.773,532.409,755.635
		L532.409,755.635z"/>
	</g>
</g>


<g>
	<polygon fill="#FEFEFE" points="509.754,405.594 509.929,408.471 515.573,408.71 521.455,405.419 518.371,400.903 516.988,396.086
		512.282,389.599 509.627,388.757 509.627,395.275 512.441,403.129 	"/>
	<polygon fill="#FEFEFE" points="355.552,468.234 354.09,471.239 363.518,474.196 368.701,477.487 371.483,474.021 361.212,468.346
			"/>
	<polygon fill="#FEFEFE" points="508.577,403.24 507.671,397.867 506.844,396.563 505.477,397.008 505.191,400.792 502.091,402.445
		502.059,405.212 505.843,405.053 	"/>
	<polygon fill="#FEFEFE" points="416.54,360.346 406.396,361.236 395.935,363.812 395.967,367.739 409.385,367.421 413.281,371.046
		411.707,382.27 415.586,384.734 429.513,374.178 424.028,365.735 	"/>
	<polygon fill="#FEFEFE" points="487.607,364.845 495.874,353.239 497.13,347.42 460.166,346.1 432.438,352.921 431.612,355.274
		445.603,359.519 445.523,363.43 450.913,365.815 450.34,369.042 445.73,370.855 441.739,385.609 450.261,389.154 459.339,378.884
		468.37,374.352 486.717,369.917 	"/>
	<path fill="#FEFEFE" d="M649.853,350.155c-38.427-38.427-91.449-62.243-149.861-62.243s-111.434,23.816-149.845,62.228
		C311.72,388.566,287.903,441.588,287.903,500s23.816,111.434,62.243,149.845c38.411,38.427,91.433,62.243,149.845,62.243
		s111.434-23.816,149.861-62.243c38.411-38.411,62.228-91.434,62.228-149.845S688.265,388.566,649.853,350.155z M690.999,500
		c0,52.593-21.447,100.353-56.043,134.948c-34.612,34.612-82.371,56.059-134.964,56.059c-52.593,0-100.353-21.447-134.948-56.059
		c-34.596-34.596-56.059-82.355-56.059-134.948c0-8.596,0.583-17.058,1.692-25.358l9.851,10.127l16.344,3.053l0.239,0.159l7.25,7.25
		l7.488,7.425l6.105,0.382l3.466,2.894l-1.049,5.803l-4.595,4.738l-2.973,16.026l0.238,0.238l11.749,20.923l13.848,22.624
		l3.132,46.679l19.969,24.707l7.329-2.258l-6.534-10.143l-0.477-10.223l21.257-36.774l0.318-8.776l-0.159-1.288l13.593-5.708
		l0.08-0.334l10.461-25.104l-0.08-1.208l-0.079-10.62v-0.318l-28.57-14.659l-0.079-0.318l-3.704-10.461l-10.191-2.019l-5.024-7.806
		v-0.238l-16.169-3.212l-13.434-2.814l-7.727,7.87l-3.53-1.956l-3.625,1.606l-5.135-5.469l3.752-8.49l-10.779-1.669l5.39-11.94
		l-4.833-2.003l-8.188,7.615l-7.377-1.956l0.413-13.53l6.344-8.22l16.392-2.607l6.423,12.576l3.673-1.463l1.956-17.202l14.818-5.644
		l10.875-14.961l14.341-6.137l19.047-5.787l0.795-0.207l2.909-9.126l-4.181-10.382l-2.671-7.393l-5.867,5.867l-0.239,0.08
		l-5.882-2.337l-0.239-0.08l-1.224-7.631l-6.582,0.715l-3.943,11.511l-11.193,4.34l-10.048-6.677V382l20.605-9.984l-1.097-1.59
		l-33.928,1.351l-0.239,0.079l-0.716-0.222c1.144-1.256,2.308-2.494,3.484-3.72l1.175,1.064l13.021,0.048l12.846-5.549l-0.111-4.976
		l-9.809,1.558l-9.698,1.177l-0.592-0.092c34.229-32.307,80.333-52.152,130.914-52.152c50.807,0,97.073,20.007,131.358,52.552
		l-0.21,0.056l-5.66,9.651l-10.382-2.417l-15.93,1.224l-14.341,3.434l-9.619,6.105l-5.024-0.048l-2.178-3.307l4.022-1.94
		l-4.897-4.34l-4.531-3.243l-13.609,1.797l-11.447,9.333l-6.073,0.318l-4.261,3.784l1.622,9.301l7.584-1.59l2.687,7.472l5.771-1.097
		l1.94-11.463l8.728-1.256l5.151,6.201l-9.698,9.984l-5.247-0.016l-16.805,1.94l-4.388,5.724l-9.444,4.722l-5.119-0.938
		l-1.288,1.844l8.522,5.962l-3.116,4.674l-14.261-0.254l0.286,14.674l12.624,0.604l4.309-2.242l1.574-6.693l4.786-1.192
		l-0.652-3.688l1.049-1.129l3.625,2.162l6.248-4.134l10.445,9.205l0.859,6.852l5.517-5.994l-11.288-11.161l2.576-1.717l11.638,9.921
		l2.21,7.234l5.517,0.493l-1.59-5.883l5.024,0.493l2.703,7.6l15.676,0.858l-3.307,9.969l-23.419,0.97l-19.539-7.584l-32.052-0.095
		l-21.193,28.013l-2.321,17.139l10.557,20.239l29.429-1.669l13.657,8.744l-1.558,8.824l7.838,17.043l-1.717,5.358l-0.859,9.841
		l6.503,24.134l7.552,22.051l19.969-6.439l23.212-42.815l-1.574-23.641l21.177-21.113l1.097-14.198l-14.865,1.94l-21.384-36.185
		l3.148-1.987l20.732,34.278l17.95-8.156l10.064-12.464l-9.714-7.409l-7.234,1.59l-7.504-11.368l1.463-1.781l9.698,9.221
		l16.487,2.671l10.207,0.731l11.272,8.22l1.956,13.323l10.461,16.662l3.068-1.924l0.429-15.215l13.975-11.034l2.585-1.228
		C690.387,482.561,690.999,491.211,690.999,500z M609.502,423.082l3.688,4.07l-1.065,1.987l6.216,3.371l-2.591,4.118l-5.739,0.175
		l-3.911-3.816l-0.35-5.517l-5.262-8.013l8.601-4.181l3.068,2.099l-1.574,2.321l-2.337,1.351L609.502,423.082z M592.793,425.578
		l-1.129,3.545l-18.872-1.018l-3.8-2.878l-0.334-6.662l4.627-1.781c0.413-0.095,0.429-0.064,0.843-0.064l2.735,0.89l1.32,3.514
		l7.377,0.191L592.793,425.578z"/>
</g>
</svg>
